<svg width="237" height="202" viewBox="0 0 237 202" fill="none" xmlns="http://www.w3.org/2000/svg">
<g opacity="0.75">
<mask id="path-1-inside-1_837_21496" fill="white">
<path fill-rule="evenodd" clip-rule="evenodd" d="M236.279 124.857L160.963 202H80C35.8172 202 0 166.183 0 122V0H69.4785C65.5757 10.2041 63.4377 21.2808 63.4377 32.8569C63.4377 83.6671 104.627 124.857 155.438 124.857H236.279Z"/>
</mask>
<path fill-rule="evenodd" clip-rule="evenodd" d="M236.279 124.857L160.963 202H80C35.8172 202 0 166.183 0 122V0H69.4785C65.5757 10.2041 63.4377 21.2808 63.4377 32.8569C63.4377 83.6671 104.627 124.857 155.438 124.857H236.279Z" fill="url(#paint0_linear_837_21496)"/>
<path d="M160.963 202V204H161.805L162.394 203.397L160.963 202ZM236.279 124.857L237.71 126.254L241.027 122.857H236.279V124.857ZM0 0V-2H-2V0H0ZM69.4785 0L71.3465 0.714463L72.3847 -2H69.4785V0ZM162.394 203.397L237.71 126.254L234.848 123.46L159.532 200.603L162.394 203.397ZM80 204H160.963V200H80V204ZM-2 122C-2 167.287 34.7127 204 80 204V200C36.9218 200 2 165.078 2 122H-2ZM-2 0V122H2V0H-2ZM69.4785 -2H0V2H69.4785V-2ZM67.6104 -0.714463C63.6218 9.71412 61.4377 21.0328 61.4377 32.8569H65.4377C65.4377 21.5288 67.5296 10.694 71.3465 0.714463L67.6104 -0.714463ZM61.4377 32.8569C61.4377 84.7717 103.523 126.857 155.438 126.857V122.857C105.732 122.857 65.4377 82.5626 65.4377 32.8569H61.4377ZM155.438 126.857H236.279V122.857H155.438V126.857Z" fill="url(#paint1_linear_837_21496)" mask="url(#path-1-inside-1_837_21496)"/>
</g>
<defs>
<linearGradient id="paint0_linear_837_21496" x1="118.14" y1="0" x2="118.14" y2="202" gradientUnits="userSpaceOnUse">
<stop stop-color="#0F52B7" stop-opacity="0.9"/>
<stop offset="1" stop-color="#003380"/>
</linearGradient>
<linearGradient id="paint1_linear_837_21496" x1="118.14" y1="0" x2="118.14" y2="202" gradientUnits="userSpaceOnUse">
<stop stop-color="#17AAFF"/>
<stop offset="1" stop-color="#625FFF"/>
</linearGradient>
</defs>
</svg>
