<svg width="237" height="202" viewBox="0 0 237 202" fill="none" xmlns="http://www.w3.org/2000/svg">
<g opacity="0.75">
<mask id="path-1-inside-1_837_21453" fill="white">
<path fill-rule="evenodd" clip-rule="evenodd" d="M0 124.857L75.3168 202H156.279C200.462 202 236.279 166.183 236.279 122V0H165.163C169.066 10.2041 171.204 21.2808 171.204 32.8569C171.204 83.6671 130.014 124.857 79.204 124.857H0Z"/>
</mask>
<path fill-rule="evenodd" clip-rule="evenodd" d="M0 124.857L75.3168 202H156.279C200.462 202 236.279 166.183 236.279 122V0H165.163C169.066 10.2041 171.204 21.2808 171.204 32.8569C171.204 83.6671 130.014 124.857 79.204 124.857H0Z" fill="url(#paint0_linear_837_21453)"/>
<path d="M75.3168 202L73.8857 203.397L74.4743 204H75.3168V202ZM0 124.857V122.857H-4.7478L-1.43105 126.254L0 124.857ZM236.279 0H238.279V-2H236.279V0ZM165.163 0V-2H162.257L163.295 0.71446L165.163 0ZM76.7478 200.603L1.43105 123.46L-1.43105 126.254L73.8857 203.397L76.7478 200.603ZM156.279 200H75.3168V204H156.279V200ZM234.279 122C234.279 165.078 199.358 200 156.279 200V204C201.567 204 238.279 167.287 238.279 122H234.279ZM234.279 0V122H238.279V0H234.279ZM165.163 2H236.279V-2H165.163V2ZM173.204 32.8569C173.204 21.0328 171.02 9.71412 167.031 -0.71446L163.295 0.71446C167.112 10.694 169.204 21.5288 169.204 32.8569H173.204ZM79.204 126.857C131.119 126.857 173.204 84.7717 173.204 32.8569H169.204C169.204 82.5626 128.91 122.857 79.204 122.857V126.857ZM0 126.857H79.204V122.857H0V126.857Z" fill="url(#paint1_linear_837_21453)" mask="url(#path-1-inside-1_837_21453)"/>
</g>
<defs>
<linearGradient id="paint0_linear_837_21453" x1="118.14" y1="0" x2="118.14" y2="202" gradientUnits="userSpaceOnUse">
<stop stop-color="#B70F0F" stop-opacity="0.9"/>
<stop offset="1" stop-color="#720000"/>
</linearGradient>
<linearGradient id="paint1_linear_837_21453" x1="118.14" y1="0" x2="118.14" y2="202" gradientUnits="userSpaceOnUse">
<stop stop-color="#FF5B53"/>
<stop offset="1" stop-color="#EA311D"/>
</linearGradient>
</defs>
</svg>
